# xmcd
#
# Track frame offsets: 
#        183
#        16368
#        33470
#        51170
#        65205
#        77523
#        90220
#        104570
#        115633
#        138020
#        151930
#
# Disc length: 2240 seconds
#
# Revision: 6
# Processed by: cddbd v1.5.2PL0 Copyright (c) Steve Scherf et al.
# Submitted via: ExactAudioCopy v1.3
#
DISCID=8008be0b
DTITLE=INXS - Listen Like Thieves
DYEAR=1985
DGENRE=Rock
TTITLE0=What You Need
TTITLE1=Listen Like Thieves
TTITLE2=Kiss the Dirt (Falling Down the Mountain)
TTITLE3=Shine Like it Does
TTITLE4=Good and Bad Times
TTITLE5=Biting Bullets
TTITLE6=This Time
TTITLE7=Three Sisters
TTITLE8=Same Direction
TTITLE9=One x One
TTITLE10=Red Red Sun
EXTD=
EXTT0=
EXTT1=
EXTT2=
EXTT3=
EXTT4=
EXTT5=
EXTT6=
EXTT7=
EXTT8=
EXTT9=
EXTT10=
PLAYORDER=
